<svg width="29" height="29" viewBox="0 0 29 29" fill="none" xmlns="http://www.w3.org/2000/svg">
<path d="M13.5614 1.55463C13.8823 0.681141 15.1177 0.681143 15.4386 1.55463L18.5053 9.90093C18.6065 10.1764 18.8236 10.3935 19.0991 10.4947L27.4454 13.5614C28.3189 13.8823 28.3189 15.1177 27.4454 15.4386L19.0991 18.5053C18.8236 18.6065 18.6065 18.8236 18.5053 19.0991L15.4386 27.4454C15.1177 28.3189 13.8823 28.3189 13.5614 27.4454L10.4947 19.0991C10.3935 18.8236 10.1764 18.6065 9.90093 18.5053L1.55463 15.4386C0.681141 15.1177 0.681143 13.8823 1.55463 13.5614L9.90093 10.4947C10.1764 10.3935 10.3935 10.1764 10.4947 9.90093L13.5614 1.55463Z" fill="#ECEBE9"/>
</svg>
