<svg width="105" height="74" viewBox="0 0 105 74" fill="none" xmlns="http://www.w3.org/2000/svg">
<path d="M50.2478 1.55956C51.4424 0.201947 53.5576 0.201945 54.7522 1.55956L73.1551 22.4737C73.4753 22.8375 73.8788 23.1184 74.3312 23.2922L102.713 34.1997C105.278 35.1855 105.278 38.8145 102.713 39.8003L74.3312 50.7078C73.8788 50.8816 73.4753 51.1625 73.1551 51.5263L54.7522 72.4404C53.5576 73.7981 51.4424 73.7981 50.2478 72.4404L31.8449 51.5263C31.5247 51.1625 31.1212 50.8816 30.6688 50.7078L2.28669 39.8003C-0.278394 38.8145 -0.278389 35.1855 2.2867 34.1997L30.6688 23.2922C31.1212 23.1184 31.5247 22.8375 31.8449 22.4737L50.2478 1.55956Z" fill="#4EB477"/>
</svg>
