<svg width="100%" height="100%" viewBox="0 0 1920 1080" fill="none" xmlns="http://www.w3.org/2000/svg">
<rect width="1920" height="1080" fill="#ECEBE9"/>
<path d="M407.086 442.55C431.086 450.8 451.786 452.9 470.686 452.9C484.486 452.9 487.486 451.85 487.486 448.25C487.486 444.65 484.186 443.75 473.236 443.75C424.486 443.75 401.686 431.45 401.686 403.7C401.686 376.25 427.186 362 476.986 362C498.736 362 520.936 365.45 540.136 372.5L535.786 410.75C512.236 404 493.786 402.35 475.636 402.35C463.786 402.35 459.286 403.4 459.286 407C459.286 410.6 463.036 411.5 472.336 411.5C524.836 411.5 544.936 423.65 544.936 451.4C544.936 479.9 523.336 494 479.536 494C451.186 494 424.486 490.4 402.586 482L407.086 442.55ZM607.877 494C573.377 494 550.427 474.2 549.377 444.35H591.527C592.427 452.45 598.577 458 607.877 458C617.927 458 624.377 451.4 624.377 442.1C624.377 432.8 617.927 426.5 607.877 426.5C598.577 426.5 591.677 432.5 591.527 442.85L549.377 439.85C550.577 410.15 573.527 390.5 607.877 390.5C643.127 390.5 666.377 411.2 666.377 442.25C666.377 473.3 643.127 494 607.877 494ZM729.348 494C694.848 494 671.898 474.2 670.848 444.35H712.998C713.898 452.45 720.048 458 729.348 458C739.398 458 745.848 451.4 745.848 442.1C745.848 432.8 739.398 426.5 729.348 426.5C720.048 426.5 713.148 432.5 712.998 442.85L670.848 439.85C672.048 410.15 694.998 390.5 729.348 390.5C764.598 390.5 787.848 411.2 787.848 442.25C787.848 473.3 764.598 494 729.348 494ZM793.818 491V365H835.068V491H793.818ZM836.568 400.55C844.218 394.85 857.868 390.5 868.368 390.5C889.818 390.5 898.068 401.15 898.068 426.8V491H856.818V435.95C856.818 430.85 855.468 429.2 851.418 429.2C848.718 429.2 845.418 430.4 839.568 433.55L836.568 400.55ZM901.156 393.5H946.156L957.856 448.25L969.406 393.5H1014.41L968.656 518H927.406L938.356 491.45L901.156 393.5ZM1123.14 393.5V491H1081.89V393.5H1123.14ZM1018.89 457.7V393.5H1060.14V448.55C1060.14 453.65 1061.49 455.3 1065.54 455.3C1068.24 455.3 1071.54 454.1 1077.39 450.95L1080.39 483.95C1072.74 489.65 1059.09 494 1048.59 494C1027.14 494 1018.89 483.35 1018.89 457.7ZM1130.69 491V393.5H1171.94V491H1130.69ZM1173.44 400.55C1181.09 394.85 1194.74 390.5 1205.24 390.5C1226.69 390.5 1234.94 401.15 1234.94 426.8V491H1193.69V435.95C1193.69 430.85 1192.34 429.2 1188.29 429.2C1185.59 429.2 1182.29 430.4 1176.44 433.55L1173.44 400.55ZM1325.77 491H1274.02V365H1325.77V404.9L1355.77 365H1413.52L1364.77 428.45L1416.52 491H1355.77L1325.77 452.75V491ZM1420.98 417.5V393.5H1462.23V420.5L1420.98 417.5ZM1420.98 491V423.5H1462.23V491H1420.98ZM1469.8 491V393.5H1511.05V491H1469.8ZM1512.55 400.55C1520.2 394.85 1533.85 390.5 1544.35 390.5C1555.9 390.5 1563.55 393.65 1568.2 400.4C1577.35 394.85 1588.75 390.5 1602.1 390.5C1623.55 390.5 1631.8 401.15 1631.8 426.8V491H1590.55V435.95C1590.55 430.85 1589.2 429.2 1585.15 429.2C1581.7 429.2 1578.1 429.95 1574.05 431.9V491H1532.8V435.95C1532.8 430.85 1531.45 429.2 1527.4 429.2C1524.7 429.2 1521.4 430.4 1515.55 433.55L1512.55 400.55Z" fill="#2B303A"/>
<mask id="path-2-outside-1_1_5061" maskUnits="userSpaceOnUse" x="623" y="536" width="789" height="123" fill="black">
<rect fill="white" x="623" y="536" width="789" height="123"/>
<path d="M726.239 578.45H671.639V590.15H724.289V623.3H671.639V650.6H628.089V541.4H726.239V578.45ZM732.729 650.6V566.1H768.479V650.6H732.729ZM769.779 572.21C776.669 566.1 784.339 563.5 793.439 563.5C812.029 563.5 819.179 572.73 819.179 594.96V611.99L783.429 614.59V600.29C783.429 597.69 782.519 597.04 780.179 597.04C778.359 597.04 775.629 598.34 772.379 600.81L769.779 572.21ZM875.089 653.2C845.189 653.2 825.299 636.04 824.389 610.17H860.919C861.699 617.19 867.029 622 875.089 622C883.799 622 889.389 616.28 889.389 608.22C889.389 600.16 883.799 594.7 875.089 594.7C867.029 594.7 861.049 599.9 860.919 608.87L824.389 606.27C825.429 580.53 845.319 563.5 875.089 563.5C905.639 563.5 925.789 581.44 925.789 608.35C925.789 635.26 905.639 653.2 875.089 653.2ZM930.964 650.6V566.1H966.714V650.6H930.964ZM968.014 572.21C974.644 567.27 986.474 563.5 995.574 563.5C1014.16 563.5 1021.31 572.73 1021.31 594.96V650.6H985.564V602.89C985.564 598.47 984.394 597.04 980.884 597.04C978.544 597.04 975.684 598.08 970.614 600.81L968.014 572.21ZM1027.86 566.1H1041.64V541.14H1077.39V566.1H1094.81V595.35H1077.39V612.64C1077.39 618.75 1078.69 620.05 1085.45 620.05H1097.41L1096.11 650.6H1080.38C1051.13 650.6 1041.64 643.58 1041.64 617.84V595.35H1027.86V566.1ZM1139.07 615.37C1139.07 620.44 1145.05 623.43 1154.02 623.43C1164.03 623.43 1172.87 622.26 1190.42 617.97L1196.92 641.76C1185.48 649.56 1170.92 653.2 1152.07 653.2C1120.09 653.2 1101.37 636.56 1101.37 608.22C1101.37 581.31 1121.52 563.5 1152.07 563.5C1183.53 563.5 1200.17 579.1 1200.17 608.48V615.37H1139.07ZM1139.46 599.51H1165.98C1165.98 594.7 1159.87 591.45 1152.72 591.45C1145.57 591.45 1139.46 594.7 1139.46 599.51ZM1206.04 650.6V566.1H1241.79V650.6H1206.04ZM1243.09 572.21C1249.72 567.27 1261.55 563.5 1270.65 563.5C1289.24 563.5 1296.39 572.73 1296.39 594.96V650.6H1260.64V602.89C1260.64 598.47 1259.47 597.04 1255.96 597.04C1253.62 597.04 1250.76 598.08 1245.69 600.81L1243.09 572.21ZM1371.18 650.6V612.25C1371.18 601.98 1365.72 596.91 1354.54 596.91C1344.14 596.91 1338.03 601.72 1338.03 609.91C1338.03 618.49 1344.66 623.17 1358.57 623.17H1365.98L1369.88 648.13C1361.3 651.38 1351.94 653.2 1342.84 653.2C1317.1 653.2 1301.63 637.21 1301.63 610.3C1301.63 582.22 1318.01 563.63 1342.84 563.63C1354.02 563.63 1364.03 566.36 1371.18 571.43V541.4H1406.93V650.6H1371.18Z"/>
</mask>
<path d="M726.239 578.45V583.45H731.239V578.45H726.239ZM671.639 578.45V573.45H666.639V578.45H671.639ZM671.639 590.15H666.639V595.15H671.639V590.15ZM724.289 590.15H729.289V585.15H724.289V590.15ZM724.289 623.3V628.3H729.289V623.3H724.289ZM671.639 623.3V618.3H666.639V623.3H671.639ZM671.639 650.6V655.6H676.639V650.6H671.639ZM628.089 650.6H623.089V655.6H628.089V650.6ZM628.089 541.4V536.4H623.089V541.4H628.089ZM726.239 541.4H731.239V536.4H726.239V541.4ZM726.239 573.45H671.639V583.45H726.239V573.45ZM666.639 578.45V590.15H676.639V578.45H666.639ZM671.639 595.15H724.289V585.15H671.639V595.15ZM719.289 590.15V623.3H729.289V590.15H719.289ZM724.289 618.3H671.639V628.3H724.289V618.3ZM666.639 623.3V650.6H676.639V623.3H666.639ZM671.639 645.6H628.089V655.6H671.639V645.6ZM633.089 650.6V541.4H623.089V650.6H633.089ZM628.089 546.4H726.239V536.4H628.089V546.4ZM721.239 541.4V578.45H731.239V541.4H721.239ZM732.729 650.6H727.729V655.6H732.729V650.6ZM732.729 566.1V561.1H727.729V566.1H732.729ZM768.479 566.1H773.479V561.1H768.479V566.1ZM768.479 650.6V655.6H773.479V650.6H768.479ZM769.779 572.21L766.461 568.469L764.571 570.146L764.799 572.663L769.779 572.21ZM819.179 611.99L819.542 616.977L824.179 616.64V611.99H819.179ZM783.429 614.59H778.429V619.967L783.792 619.577L783.429 614.59ZM772.379 600.81L767.399 601.263L768.217 610.253L775.404 604.791L772.379 600.81ZM737.729 650.6V566.1H727.729V650.6H737.729ZM732.729 571.1H768.479V561.1H732.729V571.1ZM763.479 566.1V650.6H773.479V566.1H763.479ZM768.479 645.6H732.729V655.6H768.479V645.6ZM773.096 575.951C778.987 570.728 785.443 568.5 793.439 568.5V558.5C783.235 558.5 774.351 561.472 766.461 568.469L773.096 575.951ZM793.439 568.5C801.966 568.5 806.615 570.601 809.392 574.037C812.391 577.748 814.179 584.15 814.179 594.96H824.179C824.179 583.54 822.392 574.212 817.169 567.751C811.723 561.014 803.501 558.5 793.439 558.5V568.5ZM814.179 594.96V611.99H824.179V594.96H814.179ZM818.816 607.003L783.066 609.603L783.792 619.577L819.542 616.977L818.816 607.003ZM788.429 614.59V600.29H778.429V614.59H788.429ZM788.429 600.29C788.429 598.696 788.215 596.024 786.101 594.042C784.067 592.135 781.478 592.04 780.179 592.04V602.04C780.578 602.04 780.623 602.073 780.484 602.038C780.299 601.993 779.785 601.828 779.262 601.338C778.727 600.836 778.513 600.305 778.443 600.059C778.389 599.87 778.429 599.888 778.429 600.29H788.429ZM780.179 592.04C778.195 592.04 776.271 592.711 774.646 593.494C772.944 594.313 771.16 595.456 769.354 596.829L775.404 604.791C776.848 603.694 778.054 602.952 778.984 602.504C779.992 602.019 780.343 602.04 780.179 602.04V592.04ZM777.358 600.357L774.758 571.757L764.799 572.663L767.399 601.263L777.358 600.357ZM824.389 610.17V605.17H819.21L819.392 610.346L824.389 610.17ZM860.919 610.17L865.889 609.618L865.394 605.17H860.919V610.17ZM860.919 608.87L860.564 613.857L865.842 614.233L865.919 608.942L860.919 608.87ZM824.389 606.27L819.393 606.068L819.197 610.913L824.034 611.257L824.389 606.27ZM875.089 648.2C861.08 648.2 849.858 644.187 842.112 637.582C834.419 631.022 829.795 621.612 829.386 609.994L819.392 610.346C819.893 624.598 825.669 636.703 835.624 645.191C845.525 653.633 859.199 658.2 875.089 658.2V648.2ZM824.389 615.17H860.919V605.17H824.389V615.17ZM855.95 610.722C856.468 615.388 858.544 619.548 862.028 622.521C865.501 625.484 870.052 627 875.089 627V617C872.067 617 869.923 616.111 868.52 614.914C867.129 613.727 866.15 611.972 865.889 609.618L855.95 610.722ZM875.089 627C880.561 627 885.456 625.183 889.006 621.703C892.557 618.221 894.389 613.437 894.389 608.22H884.389C884.389 611.063 883.426 613.169 882.005 614.562C880.582 615.957 878.327 617 875.089 617V627ZM894.389 608.22C894.389 602.993 892.549 598.247 888.957 594.82C885.385 591.411 880.496 589.7 875.089 589.7V599.7C878.392 599.7 880.654 600.719 882.054 602.055C883.434 603.373 884.389 605.387 884.389 608.22H894.389ZM875.089 589.7C869.978 589.7 865.157 591.364 861.565 594.817C857.949 598.293 856.001 603.177 855.92 608.798L865.919 608.942C865.967 605.593 867.074 603.392 868.495 602.026C869.941 600.636 872.14 599.7 875.089 599.7V589.7ZM861.274 603.883L824.744 601.283L824.034 611.257L860.564 613.857L861.274 603.883ZM829.385 606.472C829.852 594.919 834.501 585.567 842.197 579.048C849.946 572.483 861.141 568.5 875.089 568.5V558.5C859.267 558.5 845.632 563.032 835.733 571.417C825.782 579.848 819.966 591.881 819.393 606.068L829.385 606.472ZM875.089 568.5C889.403 568.5 900.815 572.695 908.579 579.576C916.288 586.407 920.789 596.22 920.789 608.35H930.789C930.789 593.57 925.215 580.958 915.212 572.092C905.263 563.275 891.326 558.5 875.089 558.5V568.5ZM920.789 608.35C920.789 620.48 916.288 630.293 908.579 637.124C900.815 644.005 889.403 648.2 875.089 648.2V658.2C891.326 658.2 905.263 653.425 915.212 644.608C925.215 635.742 930.789 623.13 930.789 608.35H920.789ZM930.964 650.6H925.964V655.6H930.964V650.6ZM930.964 566.1V561.1H925.964V566.1H930.964ZM966.714 566.1H971.714V561.1H966.714V566.1ZM966.714 650.6V655.6H971.714V650.6H966.714ZM968.014 572.21L965.026 568.201L962.781 569.874L963.034 572.663L968.014 572.21ZM1021.31 650.6V655.6H1026.31V650.6H1021.31ZM985.564 650.6H980.564V655.6H985.564V650.6ZM970.614 600.81L965.634 601.263L966.32 608.801L972.984 605.212L970.614 600.81ZM935.964 650.6V566.1H925.964V650.6H935.964ZM930.964 571.1H966.714V561.1H930.964V571.1ZM961.714 566.1V650.6H971.714V566.1H961.714ZM966.714 645.6H930.964V655.6H966.714V645.6ZM971.001 576.219C976.694 571.977 987.454 568.5 995.574 568.5V558.5C985.493 558.5 972.593 562.563 965.026 568.201L971.001 576.219ZM995.574 568.5C1004.1 568.5 1008.75 570.601 1011.53 574.037C1014.53 577.748 1016.31 584.15 1016.31 594.96H1026.31C1026.31 583.54 1024.53 574.212 1019.3 567.751C1013.86 561.014 1005.64 558.5 995.574 558.5V568.5ZM1016.31 594.96V650.6H1026.31V594.96H1016.31ZM1021.31 645.6H985.564V655.6H1021.31V645.6ZM990.564 650.6V602.89H980.564V650.6H990.564ZM990.564 602.89C990.564 600.57 990.333 597.535 988.437 595.176C986.265 592.472 983.138 592.04 980.884 592.04V602.04C981.158 602.04 981.34 602.054 981.449 602.069C981.558 602.083 981.564 602.093 981.5 602.071C981.43 602.048 981.289 601.99 981.115 601.874C980.937 601.754 980.775 601.604 980.642 601.439C980.382 601.115 980.385 600.92 980.44 601.175C980.467 601.297 980.499 601.494 980.524 601.788C980.549 602.082 980.564 602.444 980.564 602.89H990.564ZM980.884 592.04C977.149 592.04 973.282 593.694 968.243 596.408L972.984 605.212C978.085 602.466 979.938 602.04 980.884 602.04V592.04ZM975.593 600.357L972.993 571.757L963.034 572.663L965.634 601.263L975.593 600.357ZM1027.86 566.1V561.1H1022.86V566.1H1027.86ZM1041.64 566.1V571.1H1046.64V566.1H1041.64ZM1041.64 541.14V536.14H1036.64V541.14H1041.64ZM1077.39 541.14H1082.39V536.14H1077.39V541.14ZM1077.39 566.1H1072.39V571.1H1077.39V566.1ZM1094.81 566.1H1099.81V561.1H1094.81V566.1ZM1094.81 595.35V600.35H1099.81V595.35H1094.81ZM1077.39 595.35V590.35H1072.39V595.35H1077.39ZM1097.41 620.05L1102.4 620.263L1102.63 615.05H1097.41V620.05ZM1096.11 650.6V655.6H1100.9L1101.1 650.813L1096.11 650.6ZM1041.64 595.35H1046.64V590.35H1041.64V595.35ZM1027.86 595.35H1022.86V600.35H1027.86V595.35ZM1027.86 571.1H1041.64V561.1H1027.86V571.1ZM1046.64 566.1V541.14H1036.64V566.1H1046.64ZM1041.64 546.14H1077.39V536.14H1041.64V546.14ZM1072.39 541.14V566.1H1082.39V541.14H1072.39ZM1077.39 571.1H1094.81V561.1H1077.39V571.1ZM1089.81 566.1V595.35H1099.81V566.1H1089.81ZM1094.81 590.35H1077.39V600.35H1094.81V590.35ZM1072.39 595.35V612.64H1082.39V595.35H1072.39ZM1072.39 612.64C1072.39 615.483 1072.53 619.551 1075.48 622.297C1076.97 623.685 1078.74 624.327 1080.35 624.652C1081.91 624.97 1083.66 625.05 1085.45 625.05V615.05C1083.86 615.05 1082.91 614.968 1082.33 614.851C1081.79 614.741 1081.97 614.676 1082.29 614.976C1082.65 615.306 1082.65 615.581 1082.57 615.246C1082.47 614.831 1082.39 614.062 1082.39 612.64H1072.39ZM1085.45 625.05H1097.41V615.05H1085.45V625.05ZM1092.41 619.837L1091.11 650.387L1101.1 650.813L1102.4 620.263L1092.41 619.837ZM1096.11 645.6H1080.38V655.6H1096.11V645.6ZM1080.38 645.6C1065.77 645.6 1057.75 643.754 1053.22 640.015C1049 636.535 1046.64 630.357 1046.64 617.84H1036.64C1036.64 631.063 1039.02 641.265 1046.86 647.73C1054.38 653.936 1065.74 655.6 1080.38 655.6V645.6ZM1046.64 617.84V595.35H1036.64V617.84H1046.64ZM1041.64 590.35H1027.86V600.35H1041.64V590.35ZM1032.86 595.35V566.1H1022.86V595.35H1032.86ZM1139.07 615.37V610.37H1134.07V615.37H1139.07ZM1190.42 617.97L1195.24 616.652L1193.96 611.957L1189.23 613.113L1190.42 617.97ZM1196.92 641.76L1199.73 645.891L1202.68 643.882L1201.74 640.442L1196.92 641.76ZM1200.17 615.37V620.37H1205.17V615.37H1200.17ZM1139.46 599.51H1134.46V604.51H1139.46V599.51ZM1165.98 599.51V604.51H1170.98V599.51H1165.98ZM1134.07 615.37C1134.07 620.285 1137.11 623.753 1140.84 625.723C1144.44 627.623 1149.08 628.43 1154.02 628.43V618.43C1149.98 618.43 1147.14 617.742 1145.51 616.88C1144.01 616.087 1144.07 615.525 1144.07 615.37H1134.07ZM1154.02 628.43C1164.58 628.43 1173.85 627.167 1191.6 622.827L1189.23 613.113C1171.88 617.353 1163.47 618.43 1154.02 618.43V628.43ZM1185.59 619.288L1192.09 643.078L1201.74 640.442L1195.24 616.652L1185.59 619.288ZM1194.1 637.629C1183.76 644.68 1170.29 648.2 1152.07 648.2V658.2C1171.54 658.2 1187.19 654.44 1199.73 645.891L1194.1 637.629ZM1152.07 648.2C1136.89 648.2 1125.54 644.255 1118.04 637.598C1110.62 631.013 1106.37 621.236 1106.37 608.22H1096.37C1096.37 623.544 1101.47 636.257 1111.4 645.077C1121.26 653.825 1135.26 658.2 1152.07 658.2V648.2ZM1106.37 608.22C1106.37 596.092 1110.86 586.316 1118.57 579.518C1126.33 572.668 1137.74 568.5 1152.07 568.5V558.5C1135.84 558.5 1121.9 563.237 1111.95 572.02C1101.94 580.854 1096.37 593.438 1096.37 608.22H1106.37ZM1152.07 568.5C1167.03 568.5 1177.64 572.211 1184.5 578.623C1191.29 584.983 1195.17 594.726 1195.17 608.48H1205.17C1205.17 592.854 1200.72 580.107 1191.33 571.322C1182 562.589 1168.56 558.5 1152.07 558.5V568.5ZM1195.17 608.48V615.37H1205.17V608.48H1195.17ZM1200.17 610.37H1139.07V620.37H1200.17V610.37ZM1139.46 604.51H1165.98V594.51H1139.46V604.51ZM1170.98 599.51C1170.98 594.703 1167.88 591.301 1164.55 589.358C1161.2 587.405 1156.97 586.45 1152.72 586.45V596.45C1155.61 596.45 1158.01 597.12 1159.51 597.994C1161.02 598.879 1160.98 599.507 1160.98 599.51H1170.98ZM1152.72 586.45C1148.46 586.45 1144.23 587.405 1140.88 589.358C1137.55 591.301 1134.46 594.703 1134.46 599.51H1144.46C1144.46 599.507 1144.41 598.879 1145.93 597.994C1147.42 597.12 1149.82 596.45 1152.72 596.45V586.45ZM1206.04 650.6H1201.04V655.6H1206.04V650.6ZM1206.04 566.1V561.1H1201.04V566.1H1206.04ZM1241.79 566.1H1246.79V561.1H1241.79V566.1ZM1241.79 650.6V655.6H1246.79V650.6H1241.79ZM1243.09 572.21L1240.1 568.201L1237.85 569.874L1238.11 572.663L1243.09 572.21ZM1296.39 650.6V655.6H1301.39V650.6H1296.39ZM1260.64 650.6H1255.64V655.6H1260.64V650.6ZM1245.69 600.81L1240.71 601.263L1241.39 608.801L1248.06 605.212L1245.69 600.81ZM1211.04 650.6V566.1H1201.04V650.6H1211.04ZM1206.04 571.1H1241.79V561.1H1206.04V571.1ZM1236.79 566.1V650.6H1246.79V566.1H1236.79ZM1241.79 645.6H1206.04V655.6H1241.79V645.6ZM1246.07 576.219C1251.77 571.977 1262.53 568.5 1270.65 568.5V558.5C1260.56 558.5 1247.67 562.563 1240.1 568.201L1246.07 576.219ZM1270.65 568.5C1279.17 568.5 1283.82 570.601 1286.6 574.037C1289.6 577.748 1291.39 584.15 1291.39 594.96H1301.39C1301.39 583.54 1299.6 574.212 1294.38 567.751C1288.93 561.014 1280.71 558.5 1270.65 558.5V568.5ZM1291.39 594.96V650.6H1301.39V594.96H1291.39ZM1296.39 645.6H1260.64V655.6H1296.39V645.6ZM1265.64 650.6V602.89H1255.64V650.6H1265.64ZM1265.64 602.89C1265.64 600.57 1265.41 597.535 1263.51 595.176C1261.34 592.472 1258.21 592.04 1255.96 592.04V602.04C1256.23 602.04 1256.41 602.054 1256.52 602.069C1256.63 602.083 1256.64 602.093 1256.57 602.071C1256.5 602.048 1256.36 601.99 1256.19 601.874C1256.01 601.754 1255.85 601.604 1255.71 601.439C1255.45 601.115 1255.46 600.92 1255.51 601.175C1255.54 601.297 1255.57 601.494 1255.6 601.788C1255.62 602.082 1255.64 602.444 1255.64 602.89H1265.64ZM1255.96 592.04C1252.22 592.04 1248.35 593.694 1243.32 596.408L1248.06 605.212C1253.16 602.466 1255.01 602.04 1255.96 602.04V592.04ZM1250.67 600.357L1248.07 571.757L1238.11 572.663L1240.71 601.263L1250.67 600.357ZM1371.18 650.6H1366.18V655.6H1371.18V650.6ZM1365.98 623.17L1370.92 622.398L1370.26 618.17H1365.98V623.17ZM1369.88 648.13L1371.65 652.806L1375.45 651.368L1374.82 647.358L1369.88 648.13ZM1371.18 571.43L1368.29 575.509L1376.18 581.105V571.43H1371.18ZM1371.18 541.4V536.4H1366.18V541.4H1371.18ZM1406.93 541.4H1411.93V536.4H1406.93V541.4ZM1406.93 650.6V655.6H1411.93V650.6H1406.93ZM1376.18 650.6V612.25H1366.18V650.6H1376.18ZM1376.18 612.25C1376.18 606.262 1374.57 600.867 1370.45 597.056C1366.4 593.315 1360.79 591.91 1354.54 591.91V601.91C1359.48 601.91 1362.19 603.04 1363.66 604.402C1365.06 605.693 1366.18 607.968 1366.18 612.25H1376.18ZM1354.54 591.91C1348.65 591.91 1343.29 593.264 1339.29 596.41C1335.14 599.682 1333.03 604.447 1333.03 609.91H1343.03C1343.03 607.183 1343.98 605.448 1345.48 604.267C1347.14 602.961 1350.03 601.91 1354.54 601.91V591.91ZM1333.03 609.91C1333.03 615.709 1335.4 620.672 1340.33 623.93C1344.92 626.958 1351.21 628.17 1358.57 628.17V618.17C1352.03 618.17 1348.05 617.042 1345.84 615.585C1343.98 614.358 1343.03 612.691 1343.03 609.91H1333.03ZM1358.57 628.17H1365.98V618.17H1358.57V628.17ZM1361.04 623.942L1364.94 648.902L1374.82 647.358L1370.92 622.398L1361.04 623.942ZM1368.11 643.454C1360.06 646.505 1351.3 648.2 1342.84 648.2V658.2C1352.59 658.2 1362.55 656.255 1371.65 652.806L1368.11 643.454ZM1342.84 648.2C1331.02 648.2 1322.14 644.555 1316.19 638.374C1310.21 632.168 1306.63 622.811 1306.63 610.3H1296.63C1296.63 624.699 1300.78 636.792 1308.98 645.309C1317.2 653.85 1328.92 658.2 1342.84 658.2V648.2ZM1306.63 610.3C1306.63 597.213 1310.44 586.806 1316.67 579.743C1322.85 572.739 1331.75 568.63 1342.84 568.63V558.63C1329.1 558.63 1317.39 563.816 1309.18 573.127C1301.01 582.379 1296.63 595.307 1296.63 610.3H1306.63ZM1342.84 568.63C1353.29 568.63 1362.2 571.191 1368.29 575.509L1374.07 567.351C1365.86 561.529 1354.76 558.63 1342.84 558.63V568.63ZM1376.18 571.43V541.4H1366.18V571.43H1376.18ZM1371.18 546.4H1406.93V536.4H1371.18V546.4ZM1401.93 541.4V650.6H1411.93V541.4H1401.93ZM1406.93 645.6H1371.18V655.6H1406.93V645.6Z" fill="#2B303A" mask="url(#path-2-outside-1_1_5061)"/>
<path d="M53.56 59.085C53.815 59.325 54.115 59.55 54.445 59.73C54.775 59.925 55.12 60.075 55.495 60.225C55.855 60.36 56.215 60.465 56.605 60.54C56.965 60.6 57.325 60.645 57.67 60.645C58.45 60.63 59.095 60.465 59.59 60.15C60.07 59.82 60.31 59.31 60.31 58.62C60.31 58.335 60.25 58.08 60.13 57.84C59.995 57.63 59.815 57.42 59.59 57.24C59.35 57.075 59.05 56.925 58.72 56.775C58.375 56.655 57.985 56.52 57.565 56.4C56.8 56.19 56.14 55.965 55.6 55.725C55.03 55.5 54.58 55.245 54.22 54.945C53.845 54.66 53.575 54.33 53.41 53.97C53.23 53.61 53.14 53.19 53.14 52.71C53.14 52.2 53.245 51.75 53.47 51.36C53.68 50.97 53.965 50.655 54.355 50.385C54.715 50.145 55.165 49.95 55.675 49.815C56.17 49.695 56.71 49.62 57.28 49.62C57.985 49.62 58.69 49.74 59.395 49.98C60.085 50.235 60.745 50.595 61.36 51.06L60.76 52.14C60.535 51.975 60.295 51.81 60.025 51.66C59.755 51.51 59.47 51.375 59.185 51.255C58.885 51.135 58.585 51.045 58.285 50.97C57.97 50.91 57.67 50.865 57.385 50.85C57.04 50.85 56.71 50.865 56.395 50.925C56.065 50.985 55.765 51.09 55.51 51.225C55.24 51.375 55.03 51.57 54.88 51.795C54.715 52.035 54.64 52.335 54.64 52.665C54.64 52.995 54.685 53.265 54.79 53.475C54.88 53.715 55.045 53.91 55.285 54.075C55.495 54.255 55.795 54.42 56.155 54.555C56.515 54.705 56.95 54.855 57.49 55.005C58.15 55.215 58.75 55.41 59.29 55.62C59.815 55.845 60.265 56.085 60.655 56.355C61.015 56.64 61.3 56.955 61.51 57.3C61.705 57.66 61.81 58.065 61.81 58.515C61.81 59.115 61.705 59.64 61.495 60.06C61.27 60.48 60.97 60.825 60.595 61.095C60.205 61.365 59.755 61.56 59.23 61.695C58.69 61.815 58.12 61.875 57.49 61.875C56.68 61.875 55.885 61.74 55.09 61.47C54.28 61.185 53.545 60.795 52.915 60.285L53.56 59.085ZM67.9874 60.81C68.4224 60.81 68.8424 60.72 69.2624 60.555C69.6524 60.375 70.0124 60.135 70.3274 59.835C70.6274 59.535 70.8674 59.16 71.0624 58.725C71.2424 58.305 71.3324 57.825 71.3324 57.3C71.3324 56.76 71.2274 56.28 71.0324 55.83C70.8224 55.41 70.5674 55.035 70.2674 54.72C69.9374 54.42 69.5774 54.195 69.1874 54.015C68.7824 53.85 68.3774 53.76 67.9874 53.76C67.5674 53.76 67.1774 53.85 66.7874 54.015C66.3824 54.195 66.0224 54.435 65.7074 54.735C65.3774 55.065 65.1224 55.44 64.9424 55.86C64.7324 56.31 64.6424 56.79 64.6424 57.3C64.6424 57.825 64.7324 58.305 64.9124 58.725C65.0924 59.16 65.3324 59.535 65.6474 59.835C65.9474 60.135 66.3074 60.375 66.7274 60.555C67.1174 60.72 67.5374 60.81 67.9874 60.81ZM63.1574 57.3C63.1574 56.58 63.2924 55.92 63.5624 55.32C63.8174 54.735 64.1774 54.225 64.6274 53.805C65.0774 53.4 65.5874 53.085 66.1724 52.86C66.7424 52.65 67.3574 52.53 67.9874 52.53C68.6174 52.53 69.2174 52.65 69.8024 52.86C70.3724 53.085 70.8974 53.4 71.3474 53.805C71.7824 54.225 72.1424 54.735 72.4124 55.32C72.6824 55.92 72.8174 56.58 72.8174 57.3C72.8174 58.035 72.6824 58.695 72.4124 59.265C72.1424 59.85 71.7824 60.33 71.3474 60.75C70.8974 61.155 70.3724 61.47 69.8024 61.695C69.2174 61.905 68.6174 62.025 67.9874 62.025C67.3574 62.025 66.7424 61.905 66.1724 61.695C65.5874 61.47 65.0774 61.155 64.6274 60.75C64.1774 60.33 63.8174 59.85 63.5624 59.265C63.2924 58.695 63.1574 58.035 63.1574 57.3ZM79.153 60.81C79.588 60.81 80.008 60.72 80.428 60.555C80.818 60.375 81.178 60.135 81.493 59.835C81.793 59.535 82.033 59.16 82.228 58.725C82.408 58.305 82.498 57.825 82.498 57.3C82.498 56.76 82.393 56.28 82.198 55.83C81.988 55.41 81.733 55.035 81.433 54.72C81.103 54.42 80.743 54.195 80.353 54.015C79.948 53.85 79.543 53.76 79.153 53.76C78.733 53.76 78.343 53.85 77.953 54.015C77.548 54.195 77.188 54.435 76.873 54.735C76.543 55.065 76.288 55.44 76.108 55.86C75.898 56.31 75.808 56.79 75.808 57.3C75.808 57.825 75.898 58.305 76.078 58.725C76.258 59.16 76.498 59.535 76.813 59.835C77.113 60.135 77.473 60.375 77.893 60.555C78.283 60.72 78.703 60.81 79.153 60.81ZM74.323 57.3C74.323 56.58 74.458 55.92 74.728 55.32C74.983 54.735 75.343 54.225 75.793 53.805C76.243 53.4 76.753 53.085 77.338 52.86C77.908 52.65 78.523 52.53 79.153 52.53C79.783 52.53 80.383 52.65 80.968 52.86C81.538 53.085 82.063 53.4 82.513 53.805C82.948 54.225 83.308 54.735 83.578 55.32C83.848 55.92 83.983 56.58 83.983 57.3C83.983 58.035 83.848 58.695 83.578 59.265C83.308 59.85 82.948 60.33 82.513 60.75C82.063 61.155 81.538 61.47 80.968 61.695C80.383 61.905 79.783 62.025 79.153 62.025C78.523 62.025 77.908 61.905 77.338 61.695C76.753 61.47 76.243 61.155 75.793 60.75C75.343 60.33 74.983 59.85 74.728 59.265C74.458 58.695 74.323 58.035 74.323 57.3ZM87.4352 54.075C87.8252 53.595 88.2902 53.235 88.8452 53.01C89.3852 52.8 89.9552 52.68 90.5852 52.68C91.1552 52.68 91.6802 52.77 92.1602 52.95C92.6252 53.13 93.0302 53.385 93.3752 53.7C93.7052 54.03 93.9602 54.42 94.1402 54.87C94.3202 55.335 94.4102 55.845 94.4102 56.385V61.575H92.9102V56.79C92.9102 54.87 91.9952 53.91 90.1952 53.91C89.8802 53.91 89.5652 53.97 89.2652 54.075C88.9352 54.195 88.6502 54.36 88.3952 54.57C88.1252 54.795 87.9002 55.065 87.7352 55.395C87.5552 55.725 87.4652 56.115 87.4352 56.55V61.575H85.9352V49.92H87.4352V54.075ZM101.008 64.56C101.458 64.56 101.863 64.47 102.223 64.32C102.553 64.155 102.838 63.93 103.078 63.66C103.303 63.36 103.483 63.015 103.603 62.625C103.723 62.205 103.783 61.77 103.783 61.29V60.09C103.423 60.57 102.988 60.93 102.448 61.2C101.893 61.44 101.293 61.575 100.633 61.575C100.048 61.575 99.5228 61.485 99.0578 61.32C98.5778 61.14 98.1878 60.885 97.8578 60.57C97.5128 60.24 97.2578 59.865 97.0778 59.415C96.8978 58.965 96.8078 58.47 96.8078 57.915V52.98H98.3078V57.315C98.3078 58.365 98.5328 59.13 98.9828 59.61C99.4178 60.09 100.093 60.345 101.023 60.345C101.368 60.345 101.698 60.27 102.028 60.12C102.343 59.97 102.628 59.76 102.883 59.49C103.123 59.25 103.333 58.965 103.498 58.635C103.648 58.32 103.753 57.99 103.783 57.645V52.98H105.283V61.29C105.268 61.98 105.163 62.595 104.968 63.165C104.758 63.705 104.488 64.185 104.143 64.575C103.783 64.95 103.378 65.25 102.913 65.46C102.433 65.67 101.908 65.775 101.338 65.775C100.783 65.775 100.258 65.7 99.7628 65.58C99.2528 65.445 98.8178 65.25 98.4278 64.98C98.0378 64.695 97.7078 64.335 97.4678 63.915C97.1978 63.48 97.0328 62.955 96.9728 62.355H98.4878C98.4878 62.655 98.5628 62.955 98.6978 63.225C98.8178 63.495 98.9978 63.72 99.2228 63.93C99.4328 64.11 99.7028 64.275 100.018 64.395C100.318 64.5 100.648 64.56 101.008 64.56ZM114.7 60.435C114.295 60.945 113.815 61.305 113.275 61.545C112.72 61.755 112.135 61.875 111.505 61.875C110.92 61.875 110.395 61.785 109.93 61.605C109.45 61.425 109.06 61.17 108.73 60.855C108.385 60.525 108.13 60.12 107.95 59.67C107.77 59.22 107.68 58.725 107.68 58.17V52.98H109.18V57.765C109.18 59.685 110.08 60.645 111.895 60.645C112.195 60.645 112.51 60.585 112.84 60.48C113.14 60.36 113.44 60.195 113.71 59.985C113.965 59.775 114.175 59.49 114.355 59.16C114.52 58.83 114.625 58.455 114.655 58.005V52.98H116.155V61.575H114.805L114.7 60.435ZM120.008 54.12C120.398 53.61 120.863 53.25 121.433 53.01C121.973 52.8 122.573 52.68 123.203 52.68C123.773 52.68 124.298 52.77 124.778 52.95C125.243 53.13 125.648 53.385 125.993 53.7C126.323 54.03 126.578 54.42 126.758 54.87C126.938 55.335 127.028 55.845 127.028 56.385V61.575H125.528V56.79C125.528 54.87 124.613 53.91 122.813 53.91C122.498 53.91 122.183 53.97 121.883 54.075C121.553 54.195 121.268 54.36 121.013 54.57C120.743 54.795 120.518 55.065 120.353 55.395C120.173 55.725 120.083 56.115 120.053 56.55V61.575H118.553V52.98H119.903L120.008 54.12ZM136.101 61.575L130.926 56.175V61.575H129.426V49.92H130.926V54.735L136.026 49.92H137.976L132.171 55.41L138.066 61.575H136.101ZM141.077 52.68V61.575H139.577V52.68H141.077ZM141.077 49.5V51.18H139.577V49.5H141.077ZM150.381 61.575H148.881V56.115C148.881 55.845 148.836 55.56 148.776 55.29C148.701 55.035 148.596 54.795 148.461 54.585C148.311 54.39 148.131 54.225 147.921 54.105C147.681 53.985 147.426 53.925 147.126 53.925C146.826 53.925 146.556 54 146.316 54.135C146.061 54.285 145.851 54.45 145.671 54.66C145.476 54.87 145.326 55.095 145.206 55.335C145.086 55.59 145.011 55.815 144.981 56.01V61.575H143.481V52.98H144.846L144.906 53.865C145.251 53.46 145.641 53.16 146.091 52.98C146.526 52.8 147.051 52.71 147.681 52.68C148.146 52.68 148.581 52.8 148.986 53.04C149.376 53.28 149.706 53.625 149.946 54.075C150.606 53.145 151.581 52.68 152.856 52.68C153.246 52.68 153.621 52.77 153.981 52.92C154.326 53.1 154.641 53.325 154.911 53.61C155.166 53.91 155.376 54.255 155.541 54.66C155.691 55.08 155.781 55.545 155.781 56.055V61.575H154.281V56.115C154.281 55.875 154.236 55.62 154.161 55.35C154.071 55.095 153.951 54.855 153.801 54.645C153.621 54.435 153.426 54.27 153.186 54.12C152.931 54 152.646 53.925 152.316 53.925C152.076 53.925 151.836 53.985 151.626 54.09C151.386 54.21 151.191 54.345 151.026 54.525C150.846 54.705 150.696 54.915 150.591 55.155C150.471 55.395 150.411 55.65 150.381 55.92V61.575ZM169.925 55.005V56.235H163.43V61.575H161.93V49.92H170.21V51.15H163.43V55.005H169.925ZM173.305 54.135C173.53 53.76 173.875 53.475 174.325 53.265C174.775 53.085 175.27 52.98 175.81 52.98H177.535L177.28 54.21H175.42C175.135 54.21 174.865 54.27 174.625 54.39C174.37 54.51 174.16 54.675 173.98 54.885C173.785 55.095 173.635 55.35 173.53 55.62C173.41 55.905 173.365 56.205 173.365 56.52V61.575H171.865V52.98H173.215L173.305 54.135ZM183.254 60.81C183.689 60.81 184.109 60.72 184.529 60.555C184.919 60.375 185.279 60.135 185.594 59.835C185.894 59.535 186.134 59.16 186.329 58.725C186.509 58.305 186.599 57.825 186.599 57.3C186.599 56.76 186.494 56.28 186.299 55.83C186.089 55.41 185.834 55.035 185.534 54.72C185.204 54.42 184.844 54.195 184.454 54.015C184.049 53.85 183.644 53.76 183.254 53.76C182.834 53.76 182.444 53.85 182.054 54.015C181.649 54.195 181.289 54.435 180.974 54.735C180.644 55.065 180.389 55.44 180.209 55.86C179.999 56.31 179.909 56.79 179.909 57.3C179.909 57.825 179.999 58.305 180.179 58.725C180.359 59.16 180.599 59.535 180.914 59.835C181.214 60.135 181.574 60.375 181.994 60.555C182.384 60.72 182.804 60.81 183.254 60.81ZM178.424 57.3C178.424 56.58 178.559 55.92 178.829 55.32C179.084 54.735 179.444 54.225 179.894 53.805C180.344 53.4 180.854 53.085 181.439 52.86C182.009 52.65 182.624 52.53 183.254 52.53C183.884 52.53 184.484 52.65 185.069 52.86C185.639 53.085 186.164 53.4 186.614 53.805C187.049 54.225 187.409 54.735 187.679 55.32C187.949 55.92 188.084 56.58 188.084 57.3C188.084 58.035 187.949 58.695 187.679 59.265C187.409 59.85 187.049 60.33 186.614 60.75C186.164 61.155 185.639 61.47 185.069 61.695C184.484 61.905 183.884 62.025 183.254 62.025C182.624 62.025 182.009 61.905 181.439 61.695C180.854 61.47 180.344 61.155 179.894 60.75C179.444 60.33 179.084 59.85 178.829 59.265C178.559 58.695 178.424 58.035 178.424 57.3ZM191.345 54.12C191.735 53.61 192.2 53.25 192.77 53.01C193.31 52.8 193.91 52.68 194.54 52.68C195.11 52.68 195.635 52.77 196.115 52.95C196.58 53.13 196.985 53.385 197.33 53.7C197.66 54.03 197.915 54.42 198.095 54.87C198.275 55.335 198.365 55.845 198.365 56.385V61.575H196.865V56.79C196.865 54.87 195.95 53.91 194.15 53.91C193.835 53.91 193.52 53.97 193.22 54.075C192.89 54.195 192.605 54.36 192.35 54.57C192.08 54.795 191.855 55.065 191.69 55.395C191.51 55.725 191.42 56.115 191.39 56.55V61.575H189.89V52.98H191.24L191.345 54.12ZM203.433 52.98H205.623V54.21H203.433V59.25C203.433 59.58 203.538 59.85 203.748 60.045C203.943 60.24 204.243 60.345 204.663 60.345H205.773V61.575H203.958C203.688 61.575 203.433 61.515 203.193 61.41C202.938 61.29 202.728 61.14 202.548 60.96C202.353 60.765 202.203 60.54 202.098 60.285C201.978 60.015 201.933 59.745 201.933 59.445V54.21H200.013V52.98H201.933V49.92H203.433V52.98ZM208.605 58.545C208.725 58.89 208.905 59.205 209.145 59.475C209.37 59.76 209.625 60 209.925 60.195C210.195 60.375 210.495 60.525 210.825 60.645C211.14 60.75 211.47 60.81 211.8 60.81C212.4 60.81 212.985 60.66 213.525 60.39C214.065 60.09 214.56 59.745 215.01 59.31L216.09 60.12C215.58 60.69 214.98 61.14 214.29 61.5C213.6 61.845 212.85 62.025 212.04 62.025C211.35 62.025 210.69 61.905 210.09 61.695C209.46 61.47 208.92 61.155 208.47 60.75C208.005 60.33 207.645 59.85 207.375 59.25C207.105 58.68 206.97 58.02 206.97 57.285C206.97 56.58 207.09 55.935 207.36 55.335C207.6 54.765 207.945 54.255 208.395 53.835C208.83 53.415 209.34 53.1 209.94 52.86C210.51 52.635 211.14 52.515 211.815 52.515C212.445 52.515 213.03 52.62 213.57 52.83C214.11 53.04 214.59 53.34 215.01 53.7C215.415 54.09 215.745 54.54 216.015 55.065C216.27 55.605 216.435 56.175 216.495 56.805L208.605 58.545ZM208.38 57.39L214.83 55.935C214.5 55.17 214.095 54.615 213.585 54.255C213.075 53.925 212.52 53.745 211.92 53.745C211.41 53.745 210.945 53.835 210.525 54C210.09 54.18 209.715 54.435 209.4 54.735C209.07 55.05 208.83 55.425 208.65 55.845C208.47 56.295 208.38 56.775 208.38 57.285V57.39ZM219.773 54.12C220.163 53.61 220.628 53.25 221.198 53.01C221.738 52.8 222.338 52.68 222.968 52.68C223.538 52.68 224.063 52.77 224.543 52.95C225.008 53.13 225.413 53.385 225.758 53.7C226.088 54.03 226.343 54.42 226.523 54.87C226.703 55.335 226.793 55.845 226.793 56.385V61.575H225.293V56.79C225.293 54.87 224.378 53.91 222.578 53.91C222.263 53.91 221.948 53.97 221.648 54.075C221.318 54.195 221.033 54.36 220.778 54.57C220.508 54.795 220.283 55.065 220.118 55.395C219.938 55.725 219.848 56.115 219.818 56.55V61.575H218.318V52.98H219.668L219.773 54.12ZM232.888 52.68C233.698 52.68 234.433 52.83 235.078 53.1C235.708 53.4 236.218 53.805 236.623 54.345V49.92H238.123V61.575H236.773L236.638 60.195C236.233 60.735 235.708 61.155 235.048 61.455C234.373 61.755 233.653 61.89 232.903 61.875C232.303 61.86 231.733 61.74 231.223 61.515C230.698 61.275 230.248 60.945 229.858 60.555C229.468 60.135 229.153 59.67 228.943 59.115C228.703 58.575 228.598 57.96 228.598 57.3C228.598 56.64 228.718 56.01 228.958 55.44C229.183 54.87 229.498 54.39 229.888 53.97C230.278 53.58 230.728 53.265 231.253 53.025C231.763 52.8 232.318 52.68 232.888 52.68ZM233.248 60.645C233.728 60.645 234.178 60.555 234.568 60.405C234.958 60.24 235.288 60.015 235.558 59.715C235.828 59.43 236.038 59.085 236.188 58.665C236.323 58.26 236.398 57.81 236.398 57.3C236.398 56.79 236.323 56.325 236.188 55.905C236.038 55.485 235.828 55.125 235.558 54.825C235.288 54.54 234.958 54.315 234.568 54.15C234.178 54 233.728 53.91 233.248 53.91C232.798 53.91 232.378 54 232.003 54.15C231.613 54.315 231.268 54.54 230.998 54.825C230.713 55.125 230.488 55.485 230.338 55.905C230.173 56.325 230.098 56.79 230.098 57.3C230.098 57.81 230.173 58.26 230.338 58.665C230.488 59.085 230.713 59.43 230.998 59.715C231.268 60 231.613 60.225 232.003 60.405C232.378 60.555 232.798 60.645 233.248 60.645ZM53.2 64.92H59.02C59.47 64.92 59.92 64.995 60.355 65.115C60.775 65.25 61.165 65.445 61.495 65.7C61.825 65.97 62.08 66.285 62.29 66.675C62.485 67.08 62.59 67.545 62.59 68.085C62.59 68.625 62.5 69.06 62.335 69.42C62.155 69.78 61.915 70.08 61.615 70.32C61.3 70.56 60.94 70.755 60.52 70.89C60.085 71.04 59.62 71.175 59.14 71.28L54.7 72.345V76.575H53.2V64.92ZM61.105 68.085C61.105 67.785 61.045 67.5 60.925 67.26C60.805 67.02 60.64 66.825 60.43 66.645C60.22 66.495 59.965 66.36 59.695 66.27C59.395 66.195 59.08 66.15 58.75 66.15H54.7V70.98L58.555 70.17C59.425 69.99 60.07 69.735 60.49 69.405C60.895 69.105 61.105 68.655 61.105 68.085ZM68.0167 75.81C68.4517 75.81 68.8717 75.72 69.2917 75.555C69.6817 75.375 70.0417 75.135 70.3567 74.835C70.6567 74.535 70.8967 74.16 71.0917 73.725C71.2717 73.305 71.3617 72.825 71.3617 72.3C71.3617 71.76 71.2567 71.28 71.0617 70.83C70.8517 70.41 70.5967 70.035 70.2967 69.72C69.9667 69.42 69.6067 69.195 69.2167 69.015C68.8117 68.85 68.4067 68.76 68.0167 68.76C67.5967 68.76 67.2067 68.85 66.8167 69.015C66.4117 69.195 66.0517 69.435 65.7367 69.735C65.4067 70.065 65.1517 70.44 64.9717 70.86C64.7617 71.31 64.6717 71.79 64.6717 72.3C64.6717 72.825 64.7617 73.305 64.9417 73.725C65.1217 74.16 65.3617 74.535 65.6767 74.835C65.9767 75.135 66.3367 75.375 66.7567 75.555C67.1467 75.72 67.5667 75.81 68.0167 75.81ZM63.1867 72.3C63.1867 71.58 63.3217 70.92 63.5917 70.32C63.8467 69.735 64.2067 69.225 64.6567 68.805C65.1067 68.4 65.6167 68.085 66.2017 67.86C66.7717 67.65 67.3867 67.53 68.0167 67.53C68.6467 67.53 69.2467 67.65 69.8317 67.86C70.4017 68.085 70.9267 68.4 71.3767 68.805C71.8117 69.225 72.1717 69.735 72.4417 70.32C72.7117 70.92 72.8467 71.58 72.8467 72.3C72.8467 73.035 72.7117 73.695 72.4417 74.265C72.1717 74.85 71.8117 75.33 71.3767 75.75C70.9267 76.155 70.4017 76.47 69.8317 76.695C69.2467 76.905 68.6467 77.025 68.0167 77.025C67.3867 77.025 66.7717 76.905 66.2017 76.695C65.6167 76.47 65.1067 76.155 64.6567 75.75C64.2067 75.33 63.8467 74.85 63.5917 74.265C63.3217 73.695 63.1867 73.035 63.1867 72.3ZM76.0923 69.135C76.3173 68.76 76.6623 68.475 77.1123 68.265C77.5623 68.085 78.0573 67.98 78.5973 67.98H80.3223L80.0673 69.21H78.2073C77.9223 69.21 77.6523 69.27 77.4123 69.39C77.1573 69.51 76.9473 69.675 76.7673 69.885C76.5723 70.095 76.4223 70.35 76.3173 70.62C76.1973 70.905 76.1523 71.205 76.1523 71.52V76.575H74.6523V67.98H76.0023L76.0923 69.135ZM84.6354 67.98H86.8254V69.21H84.6354V74.25C84.6354 74.58 84.7404 74.85 84.9504 75.045C85.1454 75.24 85.4454 75.345 85.8654 75.345H86.9754V76.575H85.1604C84.8904 76.575 84.6354 76.515 84.3954 76.41C84.1404 76.29 83.9304 76.14 83.7504 75.96C83.5554 75.765 83.4054 75.54 83.3004 75.285C83.1804 75.015 83.1354 74.745 83.1354 74.445V69.21H81.2154V67.98H83.1354V64.92H84.6354V67.98ZM91.2893 76.575H89.7893V69.36H87.8693V68.13H89.7893V67.05C89.7893 66.75 89.8343 66.48 89.9543 66.21C90.0593 65.955 90.2093 65.73 90.4043 65.535C90.5843 65.355 90.7943 65.205 91.0493 65.085C91.2893 64.98 91.5443 64.92 91.8143 64.92H93.6293V66.15H92.5193C92.0993 66.15 91.7993 66.255 91.6043 66.45C91.3943 66.66 91.2893 66.915 91.2893 67.245V68.13H93.4793V69.36H91.2893V76.575ZM99.5249 75.81C99.9599 75.81 100.38 75.72 100.8 75.555C101.19 75.375 101.55 75.135 101.865 74.835C102.165 74.535 102.405 74.16 102.6 73.725C102.78 73.305 102.87 72.825 102.87 72.3C102.87 71.76 102.765 71.28 102.57 70.83C102.36 70.41 102.105 70.035 101.805 69.72C101.475 69.42 101.115 69.195 100.725 69.015C100.32 68.85 99.9149 68.76 99.5249 68.76C99.1049 68.76 98.7149 68.85 98.3249 69.015C97.9199 69.195 97.5599 69.435 97.2449 69.735C96.9149 70.065 96.6599 70.44 96.4799 70.86C96.2699 71.31 96.1799 71.79 96.1799 72.3C96.1799 72.825 96.2699 73.305 96.4499 73.725C96.6299 74.16 96.8699 74.535 97.1849 74.835C97.4849 75.135 97.8449 75.375 98.2649 75.555C98.6549 75.72 99.0749 75.81 99.5249 75.81ZM94.6949 72.3C94.6949 71.58 94.8299 70.92 95.0999 70.32C95.3549 69.735 95.7149 69.225 96.1649 68.805C96.6149 68.4 97.1249 68.085 97.7099 67.86C98.2799 67.65 98.8949 67.53 99.5249 67.53C100.155 67.53 100.755 67.65 101.34 67.86C101.91 68.085 102.435 68.4 102.885 68.805C103.32 69.225 103.68 69.735 103.95 70.32C104.22 70.92 104.355 71.58 104.355 72.3C104.355 73.035 104.22 73.695 103.95 74.265C103.68 74.85 103.32 75.33 102.885 75.75C102.435 76.155 101.91 76.47 101.34 76.695C100.755 76.905 100.155 77.025 99.5249 77.025C98.8949 77.025 98.2799 76.905 97.7099 76.695C97.1249 76.47 96.6149 76.155 96.1649 75.75C95.7149 75.33 95.3549 74.85 95.0999 74.265C94.8299 73.695 94.6949 73.035 94.6949 72.3ZM107.526 64.92V76.575H106.026V64.92H107.526ZM111.294 67.68V76.575H109.794V67.68H111.294ZM111.294 64.5V66.18H109.794V64.5H111.294ZM117.934 75.81C118.369 75.81 118.789 75.72 119.209 75.555C119.599 75.375 119.959 75.135 120.274 74.835C120.574 74.535 120.814 74.16 121.009 73.725C121.189 73.305 121.279 72.825 121.279 72.3C121.279 71.76 121.174 71.28 120.979 70.83C120.769 70.41 120.514 70.035 120.214 69.72C119.884 69.42 119.524 69.195 119.134 69.015C118.729 68.85 118.324 68.76 117.934 68.76C117.514 68.76 117.124 68.85 116.734 69.015C116.329 69.195 115.969 69.435 115.654 69.735C115.324 70.065 115.069 70.44 114.889 70.86C114.679 71.31 114.589 71.79 114.589 72.3C114.589 72.825 114.679 73.305 114.859 73.725C115.039 74.16 115.279 74.535 115.594 74.835C115.894 75.135 116.254 75.375 116.674 75.555C117.064 75.72 117.484 75.81 117.934 75.81ZM113.104 72.3C113.104 71.58 113.239 70.92 113.509 70.32C113.764 69.735 114.124 69.225 114.574 68.805C115.024 68.4 115.534 68.085 116.119 67.86C116.689 67.65 117.304 67.53 117.934 67.53C118.564 67.53 119.164 67.65 119.749 67.86C120.319 68.085 120.844 68.4 121.294 68.805C121.729 69.225 122.089 69.735 122.359 70.32C122.629 70.92 122.764 71.58 122.764 72.3C122.764 73.035 122.629 73.695 122.359 74.265C122.089 74.85 121.729 75.33 121.294 75.75C120.844 76.155 120.319 76.47 119.749 76.695C119.164 76.905 118.564 77.025 117.934 77.025C117.304 77.025 116.689 76.905 116.119 76.695C115.534 76.47 115.024 76.155 114.574 75.75C114.124 75.33 113.764 74.85 113.509 74.265C113.239 73.695 113.104 73.035 113.104 72.3ZM128.466 76.575V75.54L132.381 71.955C132.666 71.7 132.966 71.43 133.266 71.13C133.566 70.845 133.836 70.545 134.091 70.215C134.331 69.915 134.526 69.585 134.691 69.255C134.841 68.925 134.916 68.595 134.916 68.235C134.916 67.44 134.691 66.84 134.256 66.45C133.806 66.075 133.191 65.88 132.396 65.88C132.036 65.88 131.706 65.955 131.406 66.075C131.106 66.225 130.836 66.405 130.596 66.63C130.341 66.87 130.131 67.125 129.951 67.425C129.756 67.74 129.606 68.055 129.501 68.385L128.226 67.725C128.556 66.765 129.081 66 129.831 65.445C130.551 64.905 131.481 64.635 132.606 64.635C133.776 64.635 134.721 64.95 135.411 65.565C136.086 66.195 136.416 67.11 136.416 68.28C136.416 68.67 136.326 69.06 136.161 69.45C135.981 69.855 135.771 70.245 135.516 70.62C135.246 71.01 134.946 71.37 134.616 71.715C134.286 72.075 133.956 72.39 133.626 72.69L130.746 75.33H136.881V76.575H128.466ZM137.809 70.74C137.809 69.81 137.914 68.955 138.154 68.19C138.364 67.44 138.679 66.81 139.099 66.27C139.504 65.745 139.999 65.34 140.584 65.055C141.154 64.785 141.799 64.635 142.519 64.635C143.209 64.635 143.839 64.785 144.424 65.055C144.994 65.34 145.504 65.745 145.924 66.27C146.329 66.81 146.644 67.44 146.884 68.19C147.109 68.955 147.229 69.81 147.229 70.74C147.229 71.7 147.109 72.54 146.899 73.29C146.674 74.055 146.359 74.7 145.969 75.225C145.549 75.75 145.054 76.155 144.484 76.455C143.884 76.725 143.239 76.875 142.519 76.875C141.799 76.875 141.154 76.725 140.584 76.455C139.999 76.155 139.504 75.75 139.099 75.225C138.679 74.7 138.364 74.055 138.154 73.29C137.914 72.54 137.809 71.7 137.809 70.74ZM139.309 70.74C139.309 71.58 139.399 72.3 139.609 72.9C139.804 73.53 140.059 74.04 140.374 74.43C140.674 74.85 141.019 75.135 141.409 75.345C141.784 75.54 142.159 75.645 142.519 75.645C142.894 75.645 143.269 75.54 143.659 75.345C144.034 75.135 144.379 74.85 144.694 74.43C144.994 74.04 145.249 73.53 145.444 72.9C145.624 72.3 145.729 71.58 145.729 70.74C145.729 69.93 145.624 69.21 145.444 68.595C145.249 67.995 144.994 67.485 144.694 67.065C144.379 66.675 144.034 66.375 143.659 66.165C143.269 65.97 142.894 65.865 142.519 65.865C142.159 65.865 141.784 65.97 141.409 66.165C141.019 66.375 140.674 66.675 140.374 67.065C140.059 67.485 139.804 67.995 139.609 68.595C139.399 69.21 139.309 69.93 139.309 70.74ZM148.732 76.575V75.54L152.647 71.955C152.932 71.7 153.232 71.43 153.532 71.13C153.832 70.845 154.102 70.545 154.357 70.215C154.597 69.915 154.792 69.585 154.957 69.255C155.107 68.925 155.182 68.595 155.182 68.235C155.182 67.44 154.957 66.84 154.522 66.45C154.072 66.075 153.457 65.88 152.662 65.88C152.302 65.88 151.972 65.955 151.672 66.075C151.372 66.225 151.102 66.405 150.862 66.63C150.607 66.87 150.397 67.125 150.217 67.425C150.022 67.74 149.872 68.055 149.767 68.385L148.492 67.725C148.822 66.765 149.347 66 150.097 65.445C150.817 64.905 151.747 64.635 152.872 64.635C154.042 64.635 154.987 64.95 155.677 65.565C156.352 66.195 156.682 67.11 156.682 68.28C156.682 68.67 156.592 69.06 156.427 69.45C156.247 69.855 156.037 70.245 155.782 70.62C155.512 71.01 155.212 71.37 154.882 71.715C154.552 72.075 154.222 72.39 153.892 72.69L151.012 75.33H157.147V76.575H148.732ZM158.349 74.04V72.81L163.929 64.92H165.624V72.81H167.304V74.04H165.624V76.575H164.124V74.04H158.349ZM164.124 66.945L159.984 72.81H164.124V66.945Z" fill="#2B303A"/>
<path d="M1851.56 50.5546C1851.88 49.6811 1853.12 49.6811 1853.44 50.5546L1856.51 58.9009C1856.61 59.1764 1856.82 59.3935 1857.1 59.4947L1865.45 62.5614C1866.32 62.8823 1866.32 64.1177 1865.45 64.4386L1857.1 67.5053C1856.82 67.6065 1856.61 67.8236 1856.51 68.0991L1853.44 76.4454C1853.12 77.3189 1851.88 77.3189 1851.56 76.4454L1848.49 68.0991C1848.39 67.8236 1848.18 67.6065 1847.9 67.5053L1839.55 64.4386C1838.68 64.1177 1838.68 62.8823 1839.55 62.5614L1847.9 59.4947C1848.18 59.3935 1848.39 59.1764 1848.49 58.9009L1851.56 50.5546Z" fill="#2B303A"/>
</svg>
